<mxfile host="65bd71144e">
    <diagram id="xptOGLpXPPrwYQnAq5xG" name="第 1 页">
        <mxGraphModel dx="484" dy="204" grid="1" gridSize="10" guides="1" tooltips="1" connect="1" arrows="1" fold="1" page="1" pageScale="1" pageWidth="827" pageHeight="1169" math="0" shadow="0">
            <root>
                <mxCell id="0"/>
                <mxCell id="1" parent="0"/>
                <mxCell id="180" value="" style="rounded=0;whiteSpace=wrap;html=1;" parent="1" vertex="1">
                    <mxGeometry x="110" y="160" width="620" height="520" as="geometry"/>
                </mxCell>
                <mxCell id="77" style="edgeStyle=orthogonalEdgeStyle;html=1;entryX=0;entryY=0.25;entryDx=0;entryDy=0;" parent="1" target="79" edge="1">
                    <mxGeometry relative="1" as="geometry">
                        <mxPoint x="160" y="292" as="targetPoint"/>
                        <mxPoint x="300" y="260" as="sourcePoint"/>
                        <Array as="points">
                            <mxPoint x="300" y="261"/>
                            <mxPoint x="140" y="261"/>
                            <mxPoint x="140" y="301"/>
                        </Array>
                    </mxGeometry>
                </mxCell>
                <mxCell id="78" value="pll" style="rounded=0;whiteSpace=wrap;html=1;" parent="1" vertex="1">
                    <mxGeometry x="160" y="191" width="120" height="60" as="geometry"/>
                </mxCell>
                <mxCell id="79" value="uart_rx" style="rounded=0;whiteSpace=wrap;html=1;" parent="1" vertex="1">
                    <mxGeometry x="160" y="281" width="120" height="80" as="geometry"/>
                </mxCell>
                <mxCell id="80" value="vga_ctrl" style="rounded=0;whiteSpace=wrap;html=1;" parent="1" vertex="1">
                    <mxGeometry x="160" y="390" width="120" height="260" as="geometry"/>
                </mxCell>
                <mxCell id="82" style="edgeStyle=none;html=1;" parent="1" edge="1">
                    <mxGeometry relative="1" as="geometry">
                        <mxPoint x="160" y="210.855223880597" as="targetPoint"/>
                        <mxPoint x="80" y="211" as="sourcePoint"/>
                    </mxGeometry>
                </mxCell>
                <mxCell id="83" style="edgeStyle=none;html=1;exitDx=0;exitDy=0;exitPerimeter=0;startArrow=none;" parent="1" source="101" edge="1">
                    <mxGeometry relative="1" as="geometry">
                        <mxPoint x="160" y="340.995223880597" as="targetPoint"/>
                        <mxPoint x="110" y="341.03999999999996" as="sourcePoint"/>
                    </mxGeometry>
                </mxCell>
                <mxCell id="84" style="edgeStyle=none;html=1;exitX=1;exitY=0.493;exitDx=0;exitDy=0;exitPerimeter=0;" parent="1" source="99" edge="1">
                    <mxGeometry relative="1" as="geometry">
                        <mxPoint x="160" y="320.8552238805971" as="targetPoint"/>
                        <mxPoint x="100" y="321" as="sourcePoint"/>
                    </mxGeometry>
                </mxCell>
                <mxCell id="85" style="edgeStyle=none;html=1;exitX=1;exitY=0.5;exitDx=0;exitDy=0;entryX=-0.018;entryY=0.913;entryDx=0;entryDy=0;entryPerimeter=0;" parent="1" edge="1">
                    <mxGeometry relative="1" as="geometry">
                        <mxPoint x="559.8399999999999" y="419.25" as="targetPoint"/>
                        <mxPoint x="280" y="420.03999999999985" as="sourcePoint"/>
                    </mxGeometry>
                </mxCell>
                <mxCell id="86" style="edgeStyle=none;html=1;exitX=1;exitY=0.5;exitDx=0;exitDy=0;" parent="1" edge="1">
                    <mxGeometry relative="1" as="geometry">
                        <mxPoint x="560" y="400" as="targetPoint"/>
                        <mxPoint x="280" y="399.7399999999999" as="sourcePoint"/>
                    </mxGeometry>
                </mxCell>
                <mxCell id="89" value="" style="endArrow=classic;html=1;exitX=-0.009;exitY=0.956;exitDx=0;exitDy=0;exitPerimeter=0;" parent="1" edge="1">
                    <mxGeometry width="50" height="50" relative="1" as="geometry">
                        <mxPoint x="562.0000000000001" y="439.9999999999999" as="sourcePoint"/>
                        <mxPoint x="280" y="440" as="targetPoint"/>
                    </mxGeometry>
                </mxCell>
                <mxCell id="93" value="vga_clk" style="text;html=1;align=center;verticalAlign=middle;resizable=0;points=[];autosize=1;strokeColor=none;fillColor=none;" parent="1" vertex="1">
                    <mxGeometry x="106" y="462" width="60" height="20" as="geometry"/>
                </mxCell>
                <mxCell id="94" value="hsync" style="text;html=1;align=center;verticalAlign=middle;resizable=0;points=[];autosize=1;strokeColor=none;fillColor=none;" parent="1" vertex="1">
                    <mxGeometry x="760" y="568" width="50" height="20" as="geometry"/>
                </mxCell>
                <mxCell id="95" value="c0&lt;font style=&quot;font-size: 8px&quot;&gt;(25MHz)&lt;/font&gt;" style="text;html=1;align=center;verticalAlign=middle;resizable=0;points=[];autosize=1;strokeColor=none;fillColor=none;" parent="1" vertex="1">
                    <mxGeometry x="280" y="191" width="60" height="20" as="geometry"/>
                </mxCell>
                <mxCell id="96" value="&lt;font style=&quot;font-size: 8px&quot;&gt;(图像数据和标志需&lt;br&gt;要50MHz同步信号)&lt;/font&gt;" style="text;html=1;align=center;verticalAlign=middle;resizable=0;points=[];autosize=1;strokeColor=none;fillColor=none;" parent="1" vertex="1">
                    <mxGeometry x="402" y="171" width="80" height="40" as="geometry"/>
                </mxCell>
                <mxCell id="97" value="sys_rst_n" style="text;html=1;align=center;verticalAlign=middle;resizable=0;points=[];autosize=1;strokeColor=none;fillColor=none;" parent="1" vertex="1">
                    <mxGeometry x="10" y="331" width="70" height="20" as="geometry"/>
                </mxCell>
                <mxCell id="98" value="" style="endArrow=classic;html=1;edgeStyle=orthogonalEdgeStyle;startArrow=none;" parent="1" source="101" edge="1">
                    <mxGeometry width="50" height="50" relative="1" as="geometry">
                        <mxPoint x="90" y="341" as="sourcePoint"/>
                        <mxPoint x="160" y="431.0000000000001" as="targetPoint"/>
                        <Array as="points">
                            <mxPoint x="140" y="431"/>
                        </Array>
                    </mxGeometry>
                </mxCell>
                <mxCell id="99" value="rx" style="text;html=1;align=center;verticalAlign=middle;resizable=0;points=[];autosize=1;strokeColor=none;fillColor=none;" parent="1" vertex="1">
                    <mxGeometry x="50" y="311" width="30" height="20" as="geometry"/>
                </mxCell>
                <mxCell id="100" value="" style="endArrow=classic;html=1;edgeStyle=orthogonalEdgeStyle;" parent="1" source="103" edge="1">
                    <mxGeometry width="50" height="50" relative="1" as="geometry">
                        <mxPoint x="320" y="211" as="sourcePoint"/>
                        <mxPoint x="160" y="461.0000000000001" as="targetPoint"/>
                        <Array as="points">
                            <mxPoint x="310" y="271"/>
                            <mxPoint x="130" y="271"/>
                            <mxPoint x="130" y="461"/>
                        </Array>
                    </mxGeometry>
                </mxCell>
                <mxCell id="101" value="" style="shape=waypoint;sketch=0;fillStyle=solid;size=6;pointerEvents=1;points=[];fillColor=none;resizable=0;rotatable=0;perimeter=centerPerimeter;snapToPoint=1;" parent="1" vertex="1">
                    <mxGeometry x="120" y="321" width="40" height="40" as="geometry"/>
                </mxCell>
                <mxCell id="102" value="" style="edgeStyle=none;html=1;exitX=0.983;exitY=0.498;exitDx=0;exitDy=0;exitPerimeter=0;endArrow=none;" parent="1" source="97" target="101" edge="1">
                    <mxGeometry relative="1" as="geometry">
                        <mxPoint x="160" y="340.995223880597" as="targetPoint"/>
                        <mxPoint x="78.81000000000006" y="340.96000000000004" as="sourcePoint"/>
                    </mxGeometry>
                </mxCell>
                <mxCell id="103" value="" style="shape=waypoint;sketch=0;fillStyle=solid;size=6;pointerEvents=1;points=[];fillColor=none;resizable=0;rotatable=0;perimeter=centerPerimeter;snapToPoint=1;" parent="1" vertex="1">
                    <mxGeometry x="290" y="191" width="40" height="40" as="geometry"/>
                </mxCell>
                <mxCell id="104" value="vsync" style="text;html=1;align=center;verticalAlign=middle;resizable=0;points=[];autosize=1;strokeColor=none;fillColor=none;" parent="1" vertex="1">
                    <mxGeometry x="760" y="588" width="50" height="20" as="geometry"/>
                </mxCell>
                <mxCell id="105" value="&amp;nbsp;rgb[15:0]" style="text;html=1;align=center;verticalAlign=middle;resizable=0;points=[];autosize=1;strokeColor=none;fillColor=none;" parent="1" vertex="1">
                    <mxGeometry x="755" y="603" width="70" height="30" as="geometry"/>
                </mxCell>
                <mxCell id="106" style="edgeStyle=none;html=1;entryX=0;entryY=0.079;entryDx=0;entryDy=0;entryPerimeter=0;" parent="1" edge="1">
                    <mxGeometry relative="1" as="geometry">
                        <mxPoint x="562" y="210.7499999999999" as="targetPoint"/>
                        <mxPoint x="280" y="210.85000000000002" as="sourcePoint"/>
                    </mxGeometry>
                </mxCell>
                <mxCell id="107" value="board_clk&amp;nbsp; &amp;nbsp;" style="text;html=1;align=center;verticalAlign=middle;resizable=0;points=[];autosize=1;strokeColor=none;fillColor=none;" parent="1" vertex="1">
                    <mxGeometry x="15" y="201" width="80" height="20" as="geometry"/>
                </mxCell>
                <mxCell id="110" value="pix_x[9:0]" style="text;html=1;align=center;verticalAlign=middle;resizable=0;points=[];autosize=1;strokeColor=none;fillColor=none;" parent="1" vertex="1">
                    <mxGeometry x="390" y="380" width="70" height="20" as="geometry"/>
                </mxCell>
                <mxCell id="111" value="pix_y[9:0]" style="text;html=1;align=center;verticalAlign=middle;resizable=0;points=[];autosize=1;strokeColor=none;fillColor=none;" parent="1" vertex="1">
                    <mxGeometry x="390" y="400" width="70" height="20" as="geometry"/>
                </mxCell>
                <mxCell id="112" value="pix_data_out[7:0]" style="text;html=1;align=center;verticalAlign=middle;resizable=0;points=[];autosize=1;strokeColor=none;fillColor=none;" parent="1" vertex="1">
                    <mxGeometry x="365" y="415" width="120" height="30" as="geometry"/>
                </mxCell>
                <mxCell id="114" value="&amp;nbsp; &amp;nbsp; vga_blk" style="text;html=1;align=center;verticalAlign=middle;resizable=0;points=[];autosize=1;strokeColor=none;fillColor=none;" parent="1" vertex="1">
                    <mxGeometry x="750" y="628" width="70" height="20" as="geometry"/>
                </mxCell>
                <mxCell id="115" value="ram_ip" style="whiteSpace=wrap;html=1;aspect=fixed;" parent="1" vertex="1">
                    <mxGeometry x="582" y="341" width="80" height="80" as="geometry"/>
                </mxCell>
                <mxCell id="116" value="输入图像数据的处理：&lt;br&gt;（为什么取高三位）&lt;br&gt;1、sobel算子是九宫格形式（滑窗），取高三位为了方便计算&lt;br&gt;（为什么可以取高三位）&lt;br&gt;2、高三位包含了图像数据的重要信息" style="text;html=1;align=left;verticalAlign=middle;resizable=0;points=[];autosize=1;strokeColor=none;fillColor=none;" parent="1" vertex="1">
                    <mxGeometry x="250" y="65" width="350" height="90" as="geometry"/>
                </mxCell>
                <mxCell id="117" style="edgeStyle=none;html=1;entryX=0.726;entryY=0.14;entryDx=0;entryDy=0;entryPerimeter=0;startArrow=none;" parent="1" source="118" target="180" edge="1">
                    <mxGeometry relative="1" as="geometry">
                        <mxPoint x="409.9999999999998" y="231" as="targetPoint"/>
                        <mxPoint x="280" y="231.10000000000002" as="sourcePoint"/>
                    </mxGeometry>
                </mxCell>
                <mxCell id="118" value="" style="shape=waypoint;sketch=0;fillStyle=solid;size=6;pointerEvents=1;points=[];fillColor=none;resizable=0;rotatable=0;perimeter=centerPerimeter;snapToPoint=1;" parent="1" vertex="1">
                    <mxGeometry x="280" y="211" width="40" height="40" as="geometry"/>
                </mxCell>
                <mxCell id="119" value="" style="edgeStyle=none;html=1;entryDx=0;entryDy=0;entryPerimeter=0;endArrow=none;" parent="1" target="118" edge="1">
                    <mxGeometry relative="1" as="geometry">
                        <mxPoint x="410" y="231" as="targetPoint"/>
                        <mxPoint x="280" y="231.10000000000002" as="sourcePoint"/>
                    </mxGeometry>
                </mxCell>
                <mxCell id="120" value="c1&lt;font style=&quot;font-size: 8px&quot;&gt;(50MHz)&lt;/font&gt;" style="text;html=1;align=center;verticalAlign=middle;resizable=0;points=[];autosize=1;strokeColor=none;fillColor=none;" parent="1" vertex="1">
                    <mxGeometry x="303" y="214" width="60" height="20" as="geometry"/>
                </mxCell>
                <mxCell id="121" value="&lt;font style=&quot;font-size: 8px&quot;&gt;(50MHz)&lt;/font&gt;" style="text;html=1;align=center;verticalAlign=middle;resizable=0;points=[];autosize=1;strokeColor=none;fillColor=none;" parent="1" vertex="1">
                    <mxGeometry x="105" y="193" width="50" height="20" as="geometry"/>
                </mxCell>
                <mxCell id="122" value="vga_clk" style="text;html=1;align=center;verticalAlign=middle;resizable=0;points=[];autosize=1;strokeColor=none;fillColor=none;" parent="1" vertex="1">
                    <mxGeometry x="330" y="191" width="60" height="20" as="geometry"/>
                </mxCell>
                <mxCell id="123" value="sys_clk&amp;nbsp; &amp;nbsp;" style="text;html=1;align=center;verticalAlign=middle;resizable=0;points=[];autosize=1;strokeColor=none;fillColor=none;" parent="1" vertex="1">
                    <mxGeometry x="354" y="213" width="60" height="20" as="geometry"/>
                </mxCell>
                <mxCell id="125" value="" style="shape=waypoint;sketch=0;fillStyle=solid;size=6;pointerEvents=1;points=[];fillColor=none;resizable=0;rotatable=0;perimeter=centerPerimeter;snapToPoint=1;" parent="1" vertex="1">
                    <mxGeometry x="120" y="360" width="40" height="40" as="geometry"/>
                </mxCell>
                <mxCell id="126" value="sys_rst_n" style="text;html=1;align=center;verticalAlign=middle;resizable=0;points=[];autosize=1;strokeColor=none;fillColor=none;" parent="1" vertex="1">
                    <mxGeometry x="390" y="360" width="70" height="20" as="geometry"/>
                </mxCell>
                <mxCell id="128" value="sobel_algorithm&lt;span style=&quot;color: rgba(0, 0, 0, 0); font-family: monospace; font-size: 0px; text-align: start;&quot;&gt;%3CmxGraphModel%3E%3Croot%3E%3CmxCell%20id%3D%220%22%2F%3E%3CmxCell%20id%3D%221%22%20parent%3D%220%22%2F%3E%3CmxCell%20id%3D%222%22%20value%3D%22uart_rx%22%20style%3D%22rounded%3D0%3BwhiteSpace%3Dwrap%3Bhtml%3D1%3B%22%20vertex%3D%221%22%20parent%3D%221%22%3E%3CmxGeometry%20x%3D%22260%22%20y%3D%22660%22%20width%3D%22120%22%20height%3D%2280%22%20as%3D%22geometry%22%2F%3E%3C%2FmxCell%3E%3C%2Froot%3E%3C%2FmxGraphModel%3E&lt;/span&gt;" style="rounded=0;whiteSpace=wrap;html=1;" parent="1" vertex="1">
                    <mxGeometry x="362" y="250" width="120" height="111" as="geometry"/>
                </mxCell>
                <mxCell id="129" value="uart_tx" style="rounded=0;whiteSpace=wrap;html=1;" parent="1" vertex="1">
                    <mxGeometry x="562" y="480" width="120" height="80" as="geometry"/>
                </mxCell>
                <mxCell id="138" style="edgeStyle=none;html=1;exitDx=0;exitDy=0;entryX=0.983;entryY=0.995;entryDx=0;entryDy=0;entryPerimeter=0;exitPerimeter=0;startArrow=none;" parent="1" source="168" edge="1">
                    <mxGeometry relative="1" as="geometry">
                        <mxPoint x="562.47" y="330.7199999999999" as="targetPoint"/>
                        <mxPoint x="452" y="330.85999999999984" as="sourcePoint"/>
                    </mxGeometry>
                </mxCell>
                <mxCell id="139" style="edgeStyle=none;html=1;exitX=0.08;exitY=0.961;exitDx=0;exitDy=0;exitPerimeter=0;" parent="1" edge="1">
                    <mxGeometry relative="1" as="geometry">
                        <mxPoint x="562" y="310.82" as="targetPoint"/>
                        <mxPoint x="481.60000000000014" y="310.03999999999996" as="sourcePoint"/>
                    </mxGeometry>
                </mxCell>
                <mxCell id="153" style="edgeStyle=none;html=1;exitX=0.078;exitY=1.003;exitDx=0;exitDy=0;entryX=0.983;entryY=0.995;entryDx=0;entryDy=0;entryPerimeter=0;exitPerimeter=0;" parent="1" edge="1">
                    <mxGeometry relative="1" as="geometry">
                        <mxPoint x="361.47" y="330.59000000000003" as="targetPoint"/>
                        <mxPoint x="280.02" y="330.75" as="sourcePoint"/>
                    </mxGeometry>
                </mxCell>
                <mxCell id="154" style="edgeStyle=none;html=1;exitX=0.078;exitY=0.004;exitDx=0;exitDy=0;exitPerimeter=0;" parent="1" edge="1">
                    <mxGeometry relative="1" as="geometry">
                        <mxPoint x="361" y="310.69" as="targetPoint"/>
                        <mxPoint x="280.02" y="310.7700000000001" as="sourcePoint"/>
                    </mxGeometry>
                </mxCell>
                <mxCell id="155" value="rx_valid_flag" style="text;html=1;align=center;verticalAlign=middle;resizable=0;points=[];autosize=1;strokeColor=none;fillColor=none;" parent="1" vertex="1">
                    <mxGeometry x="273" y="285.82" width="90" height="30" as="geometry"/>
                </mxCell>
                <mxCell id="158" style="edgeStyle=none;html=1;exitX=1;exitY=0.5;exitDx=0;exitDy=0;entryX=-0.017;entryY=0.752;entryDx=0;entryDy=0;entryPerimeter=0;" parent="1" edge="1">
                    <mxGeometry relative="1" as="geometry">
                        <mxPoint x="559.96" y="378.9999999999999" as="targetPoint"/>
                        <mxPoint x="140" y="380.0399999999999" as="sourcePoint"/>
                    </mxGeometry>
                </mxCell>
                <mxCell id="159" value="rx_out[7:0]" style="text;html=1;align=center;verticalAlign=middle;resizable=0;points=[];autosize=1;strokeColor=none;fillColor=none;" parent="1" vertex="1">
                    <mxGeometry x="278" y="305.82" width="80" height="30" as="geometry"/>
                </mxCell>
                <mxCell id="163" value="" style="endArrow=classic;html=1;edgeStyle=orthogonalEdgeStyle;startArrow=none;" parent="1" edge="1">
                    <mxGeometry width="50" height="50" relative="1" as="geometry">
                        <mxPoint x="300" y="261" as="sourcePoint"/>
                        <mxPoint x="560" y="550" as="targetPoint"/>
                        <Array as="points">
                            <mxPoint x="300" y="550"/>
                            <mxPoint x="560" y="550"/>
                        </Array>
                    </mxGeometry>
                </mxCell>
                <mxCell id="165" value="" style="endArrow=none;html=1;edgeStyle=orthogonalEdgeStyle;startArrow=none;" parent="1" edge="1">
                    <mxGeometry width="50" height="50" relative="1" as="geometry">
                        <mxPoint x="300" y="231" as="sourcePoint"/>
                        <mxPoint x="300" y="261" as="targetPoint"/>
                        <Array as="points"/>
                    </mxGeometry>
                </mxCell>
                <mxCell id="166" value="" style="endArrow=classic;html=1;edgeStyle=orthogonalEdgeStyle;startArrow=none;exitX=0.622;exitY=0.982;exitDx=0;exitDy=0;exitPerimeter=0;" parent="1" edge="1">
                    <mxGeometry width="50" height="50" relative="1" as="geometry">
                        <mxPoint x="529.98" y="330.4599999999999" as="sourcePoint"/>
                        <mxPoint x="560" y="490" as="targetPoint"/>
                        <Array as="points">
                            <mxPoint x="530" y="490"/>
                            <mxPoint x="560" y="490"/>
                        </Array>
                    </mxGeometry>
                </mxCell>
                <mxCell id="167" value="" style="endArrow=classic;html=1;edgeStyle=orthogonalEdgeStyle;startArrow=none;exitX=0.388;exitY=0.8;exitDx=0;exitDy=0;exitPerimeter=0;" parent="1" edge="1">
                    <mxGeometry width="50" height="50" relative="1" as="geometry">
                        <mxPoint x="510.03999999999996" y="309.9999999999999" as="sourcePoint"/>
                        <mxPoint x="560" y="510" as="targetPoint"/>
                        <Array as="points">
                            <mxPoint x="510" y="510"/>
                            <mxPoint x="560" y="510"/>
                        </Array>
                    </mxGeometry>
                </mxCell>
                <mxCell id="169" value="" style="edgeStyle=none;html=1;exitX=0.078;exitY=1.003;exitDx=0;exitDy=0;entryDx=0;entryDy=0;entryPerimeter=0;exitPerimeter=0;endArrow=none;" parent="1" target="168" edge="1">
                    <mxGeometry relative="1" as="geometry">
                        <mxPoint x="562.47" y="330.72" as="targetPoint"/>
                        <mxPoint x="481.02" y="330.8799999999999" as="sourcePoint"/>
                    </mxGeometry>
                </mxCell>
                <mxCell id="168" value="" style="shape=waypoint;sketch=0;fillStyle=solid;size=6;pointerEvents=1;points=[];fillColor=none;resizable=0;rotatable=0;perimeter=centerPerimeter;snapToPoint=1;" parent="1" vertex="1">
                    <mxGeometry x="510" y="310.82" width="40" height="40" as="geometry"/>
                </mxCell>
                <mxCell id="170" value="" style="shape=waypoint;sketch=0;fillStyle=solid;size=6;pointerEvents=1;points=[];fillColor=none;resizable=0;rotatable=0;perimeter=centerPerimeter;snapToPoint=1;" parent="1" vertex="1">
                    <mxGeometry x="490" y="291" width="40" height="40" as="geometry"/>
                </mxCell>
                <mxCell id="171" value="" style="endArrow=classic;html=1;edgeStyle=orthogonalEdgeStyle;startArrow=none;" parent="1" edge="1">
                    <mxGeometry width="50" height="50" relative="1" as="geometry">
                        <mxPoint x="320" y="400" as="sourcePoint"/>
                        <mxPoint x="560" y="530" as="targetPoint"/>
                        <Array as="points">
                            <mxPoint x="320" y="400"/>
                            <mxPoint x="320" y="530"/>
                        </Array>
                    </mxGeometry>
                </mxCell>
                <mxCell id="172" value="" style="shape=waypoint;sketch=0;fillStyle=solid;size=6;pointerEvents=1;points=[];fillColor=none;resizable=0;rotatable=0;perimeter=centerPerimeter;snapToPoint=1;" parent="1" vertex="1">
                    <mxGeometry x="300" y="360" width="40" height="40" as="geometry"/>
                </mxCell>
                <mxCell id="174" value="vga_pic" style="rounded=0;whiteSpace=wrap;html=1;" parent="1" vertex="1">
                    <mxGeometry x="562" y="190" width="120" height="261" as="geometry"/>
                </mxCell>
                <mxCell id="175" style="edgeStyle=none;html=1;exitX=1;exitY=0.493;exitDx=0;exitDy=0;exitPerimeter=0;" parent="1" edge="1">
                    <mxGeometry relative="1" as="geometry">
                        <mxPoint x="762" y="519.7152238805973" as="targetPoint"/>
                        <mxPoint x="682" y="519.72" as="sourcePoint"/>
                    </mxGeometry>
                </mxCell>
                <mxCell id="176" value="tx" style="text;html=1;align=center;verticalAlign=middle;resizable=0;points=[];autosize=1;strokeColor=none;fillColor=none;" parent="1" vertex="1">
                    <mxGeometry x="760" y="505" width="30" height="30" as="geometry"/>
                </mxCell>
                <mxCell id="177" style="edgeStyle=none;html=1;exitX=1;exitY=0.5;exitDx=0;exitDy=0;entryX=0;entryY=0.5;entryDx=0;entryDy=0;entryPerimeter=0;" parent="1" edge="1">
                    <mxGeometry relative="1" as="geometry">
                        <mxPoint x="760" y="616.7599999999999" as="targetPoint"/>
                        <mxPoint x="280" y="616.7999999999997" as="sourcePoint"/>
                    </mxGeometry>
                </mxCell>
                <mxCell id="178" style="edgeStyle=none;html=1;exitX=1;exitY=0.5;exitDx=0;exitDy=0;entryX=0;entryY=0.5;entryDx=0;entryDy=0;entryPerimeter=0;" parent="1" edge="1">
                    <mxGeometry relative="1" as="geometry">
                        <mxPoint x="760" y="636" as="targetPoint"/>
                        <mxPoint x="280" y="636.0399999999998" as="sourcePoint"/>
                    </mxGeometry>
                </mxCell>
                <mxCell id="181" style="edgeStyle=none;html=1;entryX=-0.001;entryY=0.091;entryDx=0;entryDy=0;entryPerimeter=0;" parent="1" target="128" edge="1">
                    <mxGeometry relative="1" as="geometry">
                        <mxPoint x="360" y="260" as="targetPoint"/>
                        <mxPoint x="300" y="260" as="sourcePoint"/>
                    </mxGeometry>
                </mxCell>
                <mxCell id="184" value="" style="shape=waypoint;sketch=0;fillStyle=solid;size=6;pointerEvents=1;points=[];fillColor=none;resizable=0;rotatable=0;perimeter=centerPerimeter;snapToPoint=1;" parent="1" vertex="1">
                    <mxGeometry x="280" y="240" width="40" height="40" as="geometry"/>
                </mxCell>
                <mxCell id="186" value="" style="endArrow=classic;html=1;edgeStyle=orthogonalEdgeStyle;startArrow=none;entryX=0;entryY=0.25;entryDx=0;entryDy=0;" parent="1" target="128" edge="1">
                    <mxGeometry width="50" height="50" relative="1" as="geometry">
                        <mxPoint x="320" y="380" as="sourcePoint"/>
                        <mxPoint x="310" y="290" as="targetPoint"/>
                        <Array as="points">
                            <mxPoint x="320" y="380"/>
                            <mxPoint x="320" y="278"/>
                        </Array>
                    </mxGeometry>
                </mxCell>
                <mxCell id="187" value="key_led&lt;br&gt;(threshold setting)" style="rounded=0;whiteSpace=wrap;html=1;" parent="1" vertex="1">
                    <mxGeometry x="360" y="455" width="120" height="60" as="geometry"/>
                </mxCell>
                <mxCell id="188" value="" style="endArrow=classic;html=1;edgeStyle=orthogonalEdgeStyle;startArrow=none;entryX=0;entryY=0.25;entryDx=0;entryDy=0;exitX=0;exitY=0.5;exitDx=0;exitDy=0;" parent="1" source="187" edge="1">
                    <mxGeometry width="50" height="50" relative="1" as="geometry">
                        <mxPoint x="329" y="451" as="sourcePoint"/>
                        <mxPoint x="361" y="348.75" as="targetPoint"/>
                        <Array as="points">
                            <mxPoint x="340" y="485"/>
                            <mxPoint x="340" y="349"/>
                        </Array>
                    </mxGeometry>
                </mxCell>
                <mxCell id="189" style="edgeStyle=none;html=1;exitX=1;exitY=0.5;exitDx=0;exitDy=0;entryX=0;entryY=0.5;entryDx=0;entryDy=0;entryPerimeter=0;" parent="1" edge="1">
                    <mxGeometry relative="1" as="geometry">
                        <mxPoint x="760" y="596.7599999999999" as="targetPoint"/>
                        <mxPoint x="280" y="596.7999999999998" as="sourcePoint"/>
                    </mxGeometry>
                </mxCell>
                <mxCell id="190" style="edgeStyle=none;html=1;exitX=1;exitY=0.5;exitDx=0;exitDy=0;entryX=0;entryY=0.5;entryDx=0;entryDy=0;entryPerimeter=0;" parent="1" edge="1">
                    <mxGeometry relative="1" as="geometry">
                        <mxPoint x="760" y="576.5799999999999" as="targetPoint"/>
                        <mxPoint x="280" y="576.6199999999999" as="sourcePoint"/>
                    </mxGeometry>
                </mxCell>
                <mxCell id="191" value="" style="endArrow=classic;html=1;edgeStyle=orthogonalEdgeStyle;startArrow=none;" parent="1" target="187" edge="1">
                    <mxGeometry width="50" height="50" relative="1" as="geometry">
                        <mxPoint x="80" y="660" as="sourcePoint"/>
                        <mxPoint x="420" y="530" as="targetPoint"/>
                        <Array as="points">
                            <mxPoint x="160" y="660"/>
                            <mxPoint x="420" y="660"/>
                        </Array>
                    </mxGeometry>
                </mxCell>
                <mxCell id="192" value="key_pulse" style="text;html=1;align=center;verticalAlign=middle;resizable=0;points=[];autosize=1;strokeColor=none;fillColor=none;" parent="1" vertex="1">
                    <mxGeometry x="5" y="645" width="80" height="30" as="geometry"/>
                </mxCell>
                <mxCell id="193" value="sobel_out[7:0]" style="text;html=1;align=center;verticalAlign=middle;resizable=0;points=[];autosize=1;strokeColor=none;fillColor=none;" parent="1" vertex="1">
                    <mxGeometry x="469" y="306" width="100" height="30" as="geometry"/>
                </mxCell>
                <mxCell id="194" value="sobel_valid_flag" style="text;html=1;align=center;verticalAlign=middle;resizable=0;points=[];autosize=1;strokeColor=none;fillColor=none;" parent="1" vertex="1">
                    <mxGeometry x="464" y="286" width="110" height="30" as="geometry"/>
                </mxCell>
                <mxCell id="195" value="" style="shape=waypoint;sketch=0;fillStyle=solid;size=6;pointerEvents=1;points=[];fillColor=none;resizable=0;rotatable=0;perimeter=centerPerimeter;snapToPoint=1;" vertex="1" parent="1">
                    <mxGeometry x="300" y="380" width="40" height="40" as="geometry"/>
                </mxCell>
            </root>
        </mxGraphModel>
    </diagram>
</mxfile>